<?xml version="1.0" encoding="utf-8"?>
<svg version="1.1" xmlns="http://www.w3.org/2000/svg" xmlns:xlink="http://www.w3.org/1999/xlink" x="0px" y="0px" viewBox="0 0 1000 1000" enable-background="new 0 0 1000 1000" xml:space="preserve">
<g><path fill="rgba(0,0,0,.8)" d="M611.4,45.2H388.6C179.5,45.2,10,211.4,10,416.4c0,167.7,91.1,309.3,246.8,355.4c-1.2,5.2-1.8,10.4-1.8,15.7v131c0,43.7,31.5,46.8,63,16l182-156.5h111.4c209.1,0,378.6-166.2,378.6-371.1C990,201.7,820.5,45.2,611.4,45.2z M570,605.3H220v-70.1h350V605.3z M780,465.2H220v-70h560V465.2z M780,325.2H220v-70h560V325.2z"/></g>
</svg>